<?xml version="1.0" encoding="UTF-8" standalone="no"?>
<!DOCTYPE svg PUBLIC "-//W3C//DTD SVG 1.1//EN"
 "http://www.w3.org/Graphics/SVG/1.1/DTD/svg11.dtd">
<!-- Generated by graphviz version 7.1.0 (20230121.1956)
 -->
<!-- Title: grafo Pages: 1 -->
<svg width="1016pt" height="313pt"
 viewBox="0.00 0.00 1016.18 313.22" xmlns="http://www.w3.org/2000/svg" xmlns:xlink="http://www.w3.org/1999/xlink">
<g id="graph0" class="graph" transform="scale(1 1) rotate(0) translate(4 309.22)">
<title>grafo</title>
<polygon fill="white" stroke="none" points="-4,4 -4,-309.22 1012.18,-309.22 1012.18,4 -4,4"/>
<!-- nodo_0_0 -->
<g id="node1" class="node">
<title>nodo_0_0</title>
<ellipse fill="none" stroke="black" cx="77" cy="-278.35" rx="33.88" ry="26.74"/>
<text text-anchor="middle" x="77" y="-282.15" font-family="Times New Roman,serif" font-size="14.00">Resta</text>
<text text-anchor="middle" x="77" y="-267.15" font-family="Times New Roman,serif" font-size="14.00">0.0</text>
</g>
<!-- nodo_0_1_izq -->
<g id="node2" class="node">
<title>nodo_0_1_izq</title>
<ellipse fill="none" stroke="black" cx="27" cy="-188.61" rx="27" ry="18"/>
<text text-anchor="middle" x="27" y="-184.91" font-family="Times New Roman,serif" font-size="14.00">3.5</text>
</g>
<!-- nodo_0_0&#45;&gt;nodo_0_1_izq -->
<g id="edge1" class="edge">
<title>nodo_0_0&#45;&gt;nodo_0_1_izq</title>
<path fill="none" stroke="black" d="M63.34,-253.37C56.67,-241.68 48.65,-227.59 41.83,-215.64"/>
<polygon fill="black" stroke="black" points="44.96,-214.06 36.97,-207.11 38.88,-217.53 44.96,-214.06"/>
</g>
<!-- nodo_0_1_der -->
<g id="node3" class="node">
<title>nodo_0_1_der</title>
<ellipse fill="none" stroke="black" cx="99" cy="-188.61" rx="27" ry="18"/>
<text text-anchor="middle" x="99" y="-184.91" font-family="Times New Roman,serif" font-size="14.00">3.5</text>
</g>
<!-- nodo_0_0&#45;&gt;nodo_0_1_der -->
<g id="edge2" class="edge">
<title>nodo_0_0&#45;&gt;nodo_0_1_der</title>
<path fill="none" stroke="black" d="M83.36,-251.97C86.03,-241.34 89.14,-228.94 91.88,-218.01"/>
<polygon fill="black" stroke="black" points="95.27,-218.89 94.3,-208.34 88.48,-217.19 95.27,-218.89"/>
</g>
<!-- nodo_1_0 -->
<g id="node4" class="node">
<title>nodo_1_0</title>
<ellipse fill="none" stroke="black" cx="225" cy="-278.35" rx="67.35" ry="26.74"/>
<text text-anchor="middle" x="225" y="-282.15" font-family="Times New Roman,serif" font-size="14.00">Multiplicacion</text>
<text text-anchor="middle" x="225" y="-267.15" font-family="Times New Roman,serif" font-size="14.00">64.0</text>
</g>
<!-- nodo_1_1_izq -->
<g id="node5" class="node">
<title>nodo_1_1_izq</title>
<ellipse fill="none" stroke="black" cx="204" cy="-188.61" rx="45.92" ry="26.74"/>
<text text-anchor="middle" x="204" y="-192.41" font-family="Times New Roman,serif" font-size="14.00">Potencia</text>
<text text-anchor="middle" x="204" y="-177.41" font-family="Times New Roman,serif" font-size="14.00">8.0</text>
</g>
<!-- nodo_1_0&#45;&gt;nodo_1_1_izq -->
<g id="edge7" class="edge">
<title>nodo_1_0&#45;&gt;nodo_1_1_izq</title>
<path fill="none" stroke="black" d="M218.81,-251.5C216.95,-243.72 214.87,-235.01 212.87,-226.65"/>
<polygon fill="black" stroke="black" points="216.3,-225.96 210.57,-217.05 209.49,-227.59 216.3,-225.96"/>
</g>
<!-- nodo_1_1_der -->
<g id="node10" class="node">
<title>nodo_1_1_der</title>
<ellipse fill="none" stroke="black" cx="314" cy="-188.61" rx="45.92" ry="26.74"/>
<text text-anchor="middle" x="314" y="-192.41" font-family="Times New Roman,serif" font-size="14.00">Potencia</text>
<text text-anchor="middle" x="314" y="-177.41" font-family="Times New Roman,serif" font-size="14.00">8.0</text>
</g>
<!-- nodo_1_0&#45;&gt;nodo_1_1_der -->
<g id="edge12" class="edge">
<title>nodo_1_0&#45;&gt;nodo_1_1_der</title>
<path fill="none" stroke="black" d="M249.32,-253.37C259.74,-243.11 272.03,-230.99 283.08,-220.09"/>
<polygon fill="black" stroke="black" points="285.5,-222.62 290.16,-213.11 280.58,-217.64 285.5,-222.62"/>
</g>
<!-- nodo_1_2_izq_izq -->
<g id="node6" class="node">
<title>nodo_1_2_izq_izq</title>
<ellipse fill="none" stroke="black" cx="139" cy="-98.87" rx="27" ry="18"/>
<text text-anchor="middle" x="139" y="-95.17" font-family="Times New Roman,serif" font-size="14.00">2</text>
</g>
<!-- nodo_1_1_izq&#45;&gt;nodo_1_2_izq_izq -->
<g id="edge3" class="edge">
<title>nodo_1_1_izq&#45;&gt;nodo_1_2_izq_izq</title>
<path fill="none" stroke="black" d="M186.24,-163.63C177.28,-151.54 166.43,-136.9 157.39,-124.69"/>
<polygon fill="black" stroke="black" points="160.26,-122.69 151.49,-116.73 154.63,-126.85 160.26,-122.69"/>
</g>
<!-- nodo_1_2_izq_der -->
<g id="node7" class="node">
<title>nodo_1_2_izq_der</title>
<ellipse fill="none" stroke="black" cx="213" cy="-98.87" rx="28.98" ry="26.74"/>
<text text-anchor="middle" x="213" y="-102.67" font-family="Times New Roman,serif" font-size="14.00">Raiz</text>
<text text-anchor="middle" x="213" y="-87.67" font-family="Times New Roman,serif" font-size="14.00">3.0</text>
</g>
<!-- nodo_1_1_izq&#45;&gt;nodo_1_2_izq_der -->
<g id="edge6" class="edge">
<title>nodo_1_1_izq&#45;&gt;nodo_1_2_izq_der</title>
<path fill="none" stroke="black" d="M206.65,-161.76C207.44,-154.06 208.32,-145.47 209.17,-137.2"/>
<polygon fill="black" stroke="black" points="212.64,-137.65 210.18,-127.34 205.68,-136.94 212.64,-137.65"/>
</g>
<!-- nodo_1_3_izq_der_izq -->
<g id="node8" class="node">
<title>nodo_1_3_izq_der_izq</title>
<ellipse fill="none" stroke="black" cx="177" cy="-18" rx="27" ry="18"/>
<text text-anchor="middle" x="177" y="-14.3" font-family="Times New Roman,serif" font-size="14.00">9</text>
</g>
<!-- nodo_1_2_izq_der&#45;&gt;nodo_1_3_izq_der_izq -->
<g id="edge4" class="edge">
<title>nodo_1_2_izq_der&#45;&gt;nodo_1_3_izq_der_izq</title>
<path fill="none" stroke="black" d="M202,-73.78C198,-65.02 193.46,-55.06 189.35,-46.06"/>
<polygon fill="black" stroke="black" points="192.59,-44.72 185.25,-37.08 186.22,-47.63 192.59,-44.72"/>
</g>
<!-- nodo_1_3_izq_der_der -->
<g id="node9" class="node">
<title>nodo_1_3_izq_der_der</title>
<ellipse fill="none" stroke="black" cx="249" cy="-18" rx="27" ry="18"/>
<text text-anchor="middle" x="249" y="-14.3" font-family="Times New Roman,serif" font-size="14.00">2</text>
</g>
<!-- nodo_1_2_izq_der&#45;&gt;nodo_1_3_izq_der_der -->
<g id="edge5" class="edge">
<title>nodo_1_2_izq_der&#45;&gt;nodo_1_3_izq_der_der</title>
<path fill="none" stroke="black" d="M224,-73.78C228,-65.02 232.54,-55.06 236.65,-46.06"/>
<polygon fill="black" stroke="black" points="239.78,-47.63 240.75,-37.08 233.41,-44.72 239.78,-47.63"/>
</g>
<!-- nodo_1_2_der_izq -->
<g id="node11" class="node">
<title>nodo_1_2_der_izq</title>
<ellipse fill="none" stroke="black" cx="305" cy="-98.87" rx="27" ry="18"/>
<text text-anchor="middle" x="305" y="-95.17" font-family="Times New Roman,serif" font-size="14.00">2</text>
</g>
<!-- nodo_1_1_der&#45;&gt;nodo_1_2_der_izq -->
<g id="edge8" class="edge">
<title>nodo_1_1_der&#45;&gt;nodo_1_2_der_izq</title>
<path fill="none" stroke="black" d="M311.35,-161.76C310.28,-151.33 309.04,-139.25 307.94,-128.55"/>
<polygon fill="black" stroke="black" points="311.44,-128.31 306.93,-118.72 304.47,-129.03 311.44,-128.31"/>
</g>
<!-- nodo_1_2_der_der -->
<g id="node12" class="node">
<title>nodo_1_2_der_der</title>
<ellipse fill="none" stroke="black" cx="379" cy="-98.87" rx="28.98" ry="26.74"/>
<text text-anchor="middle" x="379" y="-102.67" font-family="Times New Roman,serif" font-size="14.00">Raiz</text>
<text text-anchor="middle" x="379" y="-87.67" font-family="Times New Roman,serif" font-size="14.00">3.0</text>
</g>
<!-- nodo_1_1_der&#45;&gt;nodo_1_2_der_der -->
<g id="edge11" class="edge">
<title>nodo_1_1_der&#45;&gt;nodo_1_2_der_der</title>
<path fill="none" stroke="black" d="M331.76,-163.63C339.32,-153.43 348.23,-141.41 356.26,-130.57"/>
<polygon fill="black" stroke="black" points="359,-132.75 362.14,-122.63 353.37,-128.59 359,-132.75"/>
</g>
<!-- nodo_1_3_der_der_izq -->
<g id="node13" class="node">
<title>nodo_1_3_der_der_izq</title>
<ellipse fill="none" stroke="black" cx="377" cy="-18" rx="27" ry="18"/>
<text text-anchor="middle" x="377" y="-14.3" font-family="Times New Roman,serif" font-size="14.00">9</text>
</g>
<!-- nodo_1_2_der_der&#45;&gt;nodo_1_3_der_der_izq -->
<g id="edge9" class="edge">
<title>nodo_1_2_der_der&#45;&gt;nodo_1_3_der_der_izq</title>
<path fill="none" stroke="black" d="M378.35,-72.05C378.15,-64.29 377.93,-55.73 377.73,-47.79"/>
<polygon fill="black" stroke="black" points="381.23,-47.83 377.48,-37.93 374.23,-48.01 381.23,-47.83"/>
</g>
<!-- nodo_1_3_der_der_der -->
<g id="node14" class="node">
<title>nodo_1_3_der_der_der</title>
<ellipse fill="none" stroke="black" cx="449" cy="-18" rx="27" ry="18"/>
<text text-anchor="middle" x="449" y="-14.3" font-family="Times New Roman,serif" font-size="14.00">2</text>
</g>
<!-- nodo_1_2_der_der&#45;&gt;nodo_1_3_der_der_der -->
<g id="edge10" class="edge">
<title>nodo_1_2_der_der&#45;&gt;nodo_1_3_der_der_der</title>
<path fill="none" stroke="black" d="M397.03,-77.56C406.62,-66.75 418.45,-53.42 428.4,-42.21"/>
<polygon fill="black" stroke="black" points="430.87,-44.7 434.89,-34.89 425.64,-40.05 430.87,-44.7"/>
</g>
<!-- nodo_2_0 -->
<g id="node15" class="node">
<title>nodo_2_0</title>
<ellipse fill="none" stroke="black" cx="524" cy="-278.35" rx="86.03" ry="26.74"/>
<text text-anchor="middle" x="524" y="-282.15" font-family="Times New Roman,serif" font-size="14.00">Suma</text>
<text text-anchor="middle" x="524" y="-267.15" font-family="Times New Roman,serif" font-size="14.00">4.87192638387083</text>
</g>
<!-- nodo_2_1_izq -->
<g id="node16" class="node">
<title>nodo_2_1_izq</title>
<ellipse fill="none" stroke="black" cx="477" cy="-188.61" rx="98.99" ry="26.74"/>
<text text-anchor="middle" x="477" y="-192.41" font-family="Times New Roman,serif" font-size="14.00">Coseno</text>
<text text-anchor="middle" x="477" y="-177.41" font-family="Times New Roman,serif" font-size="14.00">&#45;0.4480736161291701</text>
</g>
<!-- nodo_2_0&#45;&gt;nodo_2_1_izq -->
<g id="edge14" class="edge">
<title>nodo_2_0&#45;&gt;nodo_2_1_izq</title>
<path fill="none" stroke="black" d="M510.15,-251.5C505.79,-243.36 500.9,-234.22 496.23,-225.51"/>
<polygon fill="black" stroke="black" points="499.43,-224.08 491.63,-216.91 493.26,-227.38 499.43,-224.08"/>
</g>
<!-- nodo_2_1_der -->
<g id="node18" class="node">
<title>nodo_2_1_der</title>
<ellipse fill="none" stroke="black" cx="621" cy="-188.61" rx="27" ry="18"/>
<text text-anchor="middle" x="621" y="-184.91" font-family="Times New Roman,serif" font-size="14.00">5.32</text>
</g>
<!-- nodo_2_0&#45;&gt;nodo_2_1_der -->
<g id="edge15" class="edge">
<title>nodo_2_0&#45;&gt;nodo_2_1_der</title>
<path fill="none" stroke="black" d="M551.28,-252.68C565.62,-239.7 583.05,-223.94 596.89,-211.42"/>
<polygon fill="black" stroke="black" points="599.21,-214.04 604.28,-204.74 594.51,-208.85 599.21,-214.04"/>
</g>
<!-- nodo_2_2_izq_ang -->
<g id="node17" class="node">
<title>nodo_2_2_izq_ang</title>
<ellipse fill="none" stroke="black" cx="477" cy="-98.87" rx="27" ry="18"/>
<text text-anchor="middle" x="477" y="-95.17" font-family="Times New Roman,serif" font-size="14.00">90</text>
</g>
<!-- nodo_2_1_izq&#45;&gt;nodo_2_2_izq_ang -->
<g id="edge13" class="edge">
<title>nodo_2_1_izq&#45;&gt;nodo_2_2_izq_ang</title>
<path fill="none" stroke="black" d="M477,-161.76C477,-151.33 477,-139.25 477,-128.55"/>
<polygon fill="black" stroke="black" points="480.5,-128.73 477,-118.73 473.5,-128.73 480.5,-128.73"/>
</g>
<!-- nodo_3_0 -->
<g id="node19" class="node">
<title>nodo_3_0</title>
<ellipse fill="none" stroke="black" cx="774" cy="-278.35" rx="33.88" ry="26.74"/>
<text text-anchor="middle" x="774" y="-282.15" font-family="Times New Roman,serif" font-size="14.00">Resta</text>
<text text-anchor="middle" x="774" y="-267.15" font-family="Times New Roman,serif" font-size="14.00">100.0</text>
</g>
<!-- nodo_3_1_izq -->
<g id="node20" class="node">
<title>nodo_3_1_izq</title>
<ellipse fill="none" stroke="black" cx="710" cy="-188.61" rx="43.68" ry="26.74"/>
<text text-anchor="middle" x="710" y="-192.41" font-family="Times New Roman,serif" font-size="14.00">Division</text>
<text text-anchor="middle" x="710" y="-177.41" font-family="Times New Roman,serif" font-size="14.00">250.0</text>
</g>
<!-- nodo_3_0&#45;&gt;nodo_3_1_izq -->
<g id="edge20" class="edge">
<title>nodo_3_0&#45;&gt;nodo_3_1_izq</title>
<path fill="none" stroke="black" d="M757.52,-254.76C750.36,-244.94 741.83,-233.24 733.98,-222.49"/>
<polygon fill="black" stroke="black" points="736.93,-220.6 728.21,-214.58 731.28,-224.72 736.93,-220.6"/>
</g>
<!-- nodo_3_1_der -->
<g id="node25" class="node">
<title>nodo_3_1_der</title>
<ellipse fill="none" stroke="black" cx="839" cy="-188.61" rx="67.35" ry="26.74"/>
<text text-anchor="middle" x="839" y="-192.41" font-family="Times New Roman,serif" font-size="14.00">Multiplicacion</text>
<text text-anchor="middle" x="839" y="-177.41" font-family="Times New Roman,serif" font-size="14.00">150</text>
</g>
<!-- nodo_3_0&#45;&gt;nodo_3_1_der -->
<g id="edge25" class="edge">
<title>nodo_3_0&#45;&gt;nodo_3_1_der</title>
<path fill="none" stroke="black" d="M790.74,-254.76C797.71,-245.35 805.95,-234.22 813.64,-223.84"/>
<polygon fill="black" stroke="black" points="816.45,-225.94 819.59,-215.82 810.82,-221.77 816.45,-225.94"/>
</g>
<!-- nodo_3_2_izq_izq -->
<g id="node21" class="node">
<title>nodo_3_2_izq_izq</title>
<ellipse fill="none" stroke="black" cx="631" cy="-98.87" rx="27" ry="18"/>
<text text-anchor="middle" x="631" y="-95.17" font-family="Times New Roman,serif" font-size="14.00">500</text>
</g>
<!-- nodo_3_1_izq&#45;&gt;nodo_3_2_izq_izq -->
<g id="edge16" class="edge">
<title>nodo_3_1_izq&#45;&gt;nodo_3_2_izq_izq</title>
<path fill="none" stroke="black" d="M689.66,-165.01C678.14,-152.23 663.76,-136.25 652.12,-123.33"/>
<polygon fill="black" stroke="black" points="654.87,-121.15 645.58,-116.06 649.67,-125.84 654.87,-121.15"/>
</g>
<!-- nodo_3_2_izq_der -->
<g id="node22" class="node">
<title>nodo_3_2_izq_der</title>
<ellipse fill="none" stroke="black" cx="720" cy="-98.87" rx="43.68" ry="26.74"/>
<text text-anchor="middle" x="720" y="-102.67" font-family="Times New Roman,serif" font-size="14.00">Division</text>
<text text-anchor="middle" x="720" y="-87.67" font-family="Times New Roman,serif" font-size="14.00">2.0</text>
</g>
<!-- nodo_3_1_izq&#45;&gt;nodo_3_2_izq_der -->
<g id="edge19" class="edge">
<title>nodo_3_1_izq&#45;&gt;nodo_3_2_izq_der</title>
<path fill="none" stroke="black" d="M712.95,-161.76C713.82,-154.06 714.8,-145.47 715.75,-137.2"/>
<polygon fill="black" stroke="black" points="719.21,-137.67 716.87,-127.34 712.26,-136.88 719.21,-137.67"/>
</g>
<!-- nodo_3_3_izq_der_izq -->
<g id="node23" class="node">
<title>nodo_3_3_izq_der_izq</title>
<ellipse fill="none" stroke="black" cx="684" cy="-18" rx="27" ry="18"/>
<text text-anchor="middle" x="684" y="-14.3" font-family="Times New Roman,serif" font-size="14.00">10</text>
</g>
<!-- nodo_3_2_izq_der&#45;&gt;nodo_3_3_izq_der_izq -->
<g id="edge17" class="edge">
<title>nodo_3_2_izq_der&#45;&gt;nodo_3_3_izq_der_izq</title>
<path fill="none" stroke="black" d="M708.61,-72.92C704.67,-64.28 700.24,-54.58 696.24,-45.8"/>
<polygon fill="black" stroke="black" points="699.42,-44.36 692.09,-36.72 693.06,-47.27 699.42,-44.36"/>
</g>
<!-- nodo_3_3_izq_der_der -->
<g id="node24" class="node">
<title>nodo_3_3_izq_der_der</title>
<ellipse fill="none" stroke="black" cx="756" cy="-18" rx="27" ry="18"/>
<text text-anchor="middle" x="756" y="-14.3" font-family="Times New Roman,serif" font-size="14.00">5</text>
</g>
<!-- nodo_3_2_izq_der&#45;&gt;nodo_3_3_izq_der_der -->
<g id="edge18" class="edge">
<title>nodo_3_2_izq_der&#45;&gt;nodo_3_3_izq_der_der</title>
<path fill="none" stroke="black" d="M731.39,-72.92C735.33,-64.28 739.76,-54.58 743.76,-45.8"/>
<polygon fill="black" stroke="black" points="746.94,-47.27 747.91,-36.72 740.58,-44.36 746.94,-47.27"/>
</g>
<!-- nodo_3_2_der_izq -->
<g id="node26" class="node">
<title>nodo_3_2_der_izq</title>
<ellipse fill="none" stroke="black" cx="829" cy="-98.87" rx="27" ry="18"/>
<text text-anchor="middle" x="829" y="-95.17" font-family="Times New Roman,serif" font-size="14.00">10</text>
</g>
<!-- nodo_3_1_der&#45;&gt;nodo_3_2_der_izq -->
<g id="edge21" class="edge">
<title>nodo_3_1_der&#45;&gt;nodo_3_2_der_izq</title>
<path fill="none" stroke="black" d="M836.05,-161.76C834.86,-151.33 833.49,-139.25 832.27,-128.55"/>
<polygon fill="black" stroke="black" points="835.76,-128.26 831.15,-118.72 828.8,-129.05 835.76,-128.26"/>
</g>
<!-- nodo_3_2_der_der -->
<g id="node27" class="node">
<title>nodo_3_2_der_der</title>
<ellipse fill="none" stroke="black" cx="941" cy="-98.87" rx="67.35" ry="26.74"/>
<text text-anchor="middle" x="941" y="-102.67" font-family="Times New Roman,serif" font-size="14.00">Multiplicacion</text>
<text text-anchor="middle" x="941" y="-87.67" font-family="Times New Roman,serif" font-size="14.00">15</text>
</g>
<!-- nodo_3_1_der&#45;&gt;nodo_3_2_der_der -->
<g id="edge24" class="edge">
<title>nodo_3_1_der&#45;&gt;nodo_3_2_der_der</title>
<path fill="none" stroke="black" d="M866.6,-163.87C878.4,-153.72 892.32,-141.75 904.91,-130.91"/>
<polygon fill="black" stroke="black" points="906.93,-133.79 912.23,-124.62 902.36,-128.49 906.93,-133.79"/>
</g>
<!-- nodo_3_3_der_der_izq -->
<g id="node28" class="node">
<title>nodo_3_3_der_der_izq</title>
<ellipse fill="none" stroke="black" cx="905" cy="-18" rx="27" ry="18"/>
<text text-anchor="middle" x="905" y="-14.3" font-family="Times New Roman,serif" font-size="14.00">3</text>
</g>
<!-- nodo_3_2_der_der&#45;&gt;nodo_3_3_der_der_izq -->
<g id="edge22" class="edge">
<title>nodo_3_2_der_der&#45;&gt;nodo_3_3_der_der_izq</title>
<path fill="none" stroke="black" d="M929.41,-72.48C925.54,-64 921.21,-54.51 917.28,-45.91"/>
<polygon fill="black" stroke="black" points="920.56,-44.66 913.22,-37.02 914.19,-47.57 920.56,-44.66"/>
</g>
<!-- nodo_3_3_der_der_der -->
<g id="node29" class="node">
<title>nodo_3_3_der_der_der</title>
<ellipse fill="none" stroke="black" cx="977" cy="-18" rx="27" ry="18"/>
<text text-anchor="middle" x="977" y="-14.3" font-family="Times New Roman,serif" font-size="14.00">5</text>
</g>
<!-- nodo_3_2_der_der&#45;&gt;nodo_3_3_der_der_der -->
<g id="edge23" class="edge">
<title>nodo_3_2_der_der&#45;&gt;nodo_3_3_der_der_der</title>
<path fill="none" stroke="black" d="M952.59,-72.48C956.46,-64 960.79,-54.51 964.72,-45.91"/>
<polygon fill="black" stroke="black" points="967.81,-47.57 968.78,-37.02 961.44,-44.66 967.81,-47.57"/>
</g>
</g>
</svg>
