<?xml version="1.0" encoding="UTF-8" standalone="no"?>
<!DOCTYPE svg PUBLIC "-//W3C//DTD SVG 1.1//EN"
 "http://www.w3.org/Graphics/SVG/1.1/DTD/svg11.dtd">
<!-- Generated by graphviz version 7.1.0 (20230121.1956)
 -->
<!-- Title: grafo Pages: 1 -->
<svg width="1210pt" height="223pt"
 viewBox="0.00 0.00 1210.00 223.48" xmlns="http://www.w3.org/2000/svg" xmlns:xlink="http://www.w3.org/1999/xlink">
<g id="graph0" class="graph" transform="scale(1 1) rotate(0) translate(4 219.48)">
<title>grafo</title>
<polygon fill="white" stroke="none" points="-4,4 -4,-219.48 1206,-219.48 1206,4 -4,4"/>
<!-- nodo_0_0 -->
<g id="node1" class="node">
<title>nodo_0_0</title>
<ellipse fill="none" stroke="black" cx="79" cy="-188.61" rx="33.88" ry="26.74"/>
<text text-anchor="middle" x="79" y="-192.41" font-family="Times New Roman,serif" font-size="14.00">Suma</text>
<text text-anchor="middle" x="79" y="-177.41" font-family="Times New Roman,serif" font-size="14.00">10.32</text>
</g>
<!-- nodo_0_1_izq -->
<g id="node2" class="node">
<title>nodo_0_1_izq</title>
<ellipse fill="none" stroke="black" cx="27" cy="-98.87" rx="27" ry="18"/>
<text text-anchor="middle" x="27" y="-95.17" font-family="Times New Roman,serif" font-size="14.00">5</text>
</g>
<!-- nodo_0_0&#45;&gt;nodo_0_1_izq -->
<g id="edge1" class="edge">
<title>nodo_0_0&#45;&gt;nodo_0_1_izq</title>
<path fill="none" stroke="black" d="M65.06,-164.1C58.01,-152.2 49.44,-137.74 42.22,-125.55"/>
<polygon fill="black" stroke="black" points="45.41,-124.07 37.3,-117.26 39.39,-127.64 45.41,-124.07"/>
</g>
<!-- nodo_0_1_der -->
<g id="node3" class="node">
<title>nodo_0_1_der</title>
<ellipse fill="none" stroke="black" cx="99" cy="-98.87" rx="27" ry="18"/>
<text text-anchor="middle" x="99" y="-95.17" font-family="Times New Roman,serif" font-size="14.00">5.32</text>
</g>
<!-- nodo_0_0&#45;&gt;nodo_0_1_der -->
<g id="edge2" class="edge">
<title>nodo_0_0&#45;&gt;nodo_0_1_der</title>
<path fill="none" stroke="black" d="M84.78,-162.23C87.21,-151.6 90.04,-139.2 92.53,-128.27"/>
<polygon fill="black" stroke="black" points="95.92,-129.14 94.73,-118.61 89.09,-127.58 95.92,-129.14"/>
</g>
<!-- nodo_1_0 -->
<g id="node4" class="node">
<title>nodo_1_0</title>
<ellipse fill="none" stroke="black" cx="199" cy="-188.61" rx="36.54" ry="26.74"/>
<text text-anchor="middle" x="199" y="-192.41" font-family="Times New Roman,serif" font-size="14.00">Resta</text>
<text text-anchor="middle" x="199" y="-177.41" font-family="Times New Roman,serif" font-size="14.00">&#45;995.5</text>
</g>
<!-- nodo_1_1_izq -->
<g id="node5" class="node">
<title>nodo_1_1_izq</title>
<ellipse fill="none" stroke="black" cx="179" cy="-98.87" rx="27" ry="18"/>
<text text-anchor="middle" x="179" y="-95.17" font-family="Times New Roman,serif" font-size="14.00">4.5</text>
</g>
<!-- nodo_1_0&#45;&gt;nodo_1_1_izq -->
<g id="edge3" class="edge">
<title>nodo_1_0&#45;&gt;nodo_1_1_izq</title>
<path fill="none" stroke="black" d="M193.11,-161.76C190.69,-151.14 187.88,-138.82 185.41,-127.98"/>
<polygon fill="black" stroke="black" points="188.86,-127.4 183.23,-118.43 182.04,-128.95 188.86,-127.4"/>
</g>
<!-- nodo_1_1_der -->
<g id="node6" class="node">
<title>nodo_1_1_der</title>
<ellipse fill="none" stroke="black" cx="270" cy="-98.87" rx="45.92" ry="26.74"/>
<text text-anchor="middle" x="270" y="-102.67" font-family="Times New Roman,serif" font-size="14.00">Potencia</text>
<text text-anchor="middle" x="270" y="-87.67" font-family="Times New Roman,serif" font-size="14.00">1000</text>
</g>
<!-- nodo_1_0&#45;&gt;nodo_1_1_der -->
<g id="edge6" class="edge">
<title>nodo_1_0&#45;&gt;nodo_1_1_der</title>
<path fill="none" stroke="black" d="M217.28,-165.01C225.31,-155.1 234.88,-143.27 243.66,-132.43"/>
<polygon fill="black" stroke="black" points="246.26,-134.77 249.83,-124.79 240.82,-130.36 246.26,-134.77"/>
</g>
<!-- nodo_1_2_der_izq -->
<g id="node7" class="node">
<title>nodo_1_2_der_izq</title>
<ellipse fill="none" stroke="black" cx="234" cy="-18" rx="27" ry="18"/>
<text text-anchor="middle" x="234" y="-14.3" font-family="Times New Roman,serif" font-size="14.00">10</text>
</g>
<!-- nodo_1_1_der&#45;&gt;nodo_1_2_der_izq -->
<g id="edge4" class="edge">
<title>nodo_1_1_der&#45;&gt;nodo_1_2_der_izq</title>
<path fill="none" stroke="black" d="M258.61,-72.92C254.67,-64.28 250.24,-54.58 246.24,-45.8"/>
<polygon fill="black" stroke="black" points="249.42,-44.36 242.09,-36.72 243.06,-47.27 249.42,-44.36"/>
</g>
<!-- nodo_1_2_der_der -->
<g id="node8" class="node">
<title>nodo_1_2_der_der</title>
<ellipse fill="none" stroke="black" cx="306" cy="-18" rx="27" ry="18"/>
<text text-anchor="middle" x="306" y="-14.3" font-family="Times New Roman,serif" font-size="14.00">3</text>
</g>
<!-- nodo_1_1_der&#45;&gt;nodo_1_2_der_der -->
<g id="edge5" class="edge">
<title>nodo_1_1_der&#45;&gt;nodo_1_2_der_der</title>
<path fill="none" stroke="black" d="M281.39,-72.92C285.33,-64.28 289.76,-54.58 293.76,-45.8"/>
<polygon fill="black" stroke="black" points="296.94,-47.27 297.91,-36.72 290.58,-44.36 296.94,-47.27"/>
</g>
<!-- nodo_2_0 -->
<g id="node9" class="node">
<title>nodo_2_0</title>
<ellipse fill="none" stroke="black" cx="464" cy="-188.61" rx="90.52" ry="26.74"/>
<text text-anchor="middle" x="464" y="-192.41" font-family="Times New Roman,serif" font-size="14.00">Suma</text>
<text text-anchor="middle" x="464" y="-177.41" font-family="Times New Roman,serif" font-size="14.00">6.213996663600558</text>
</g>
<!-- nodo_2_1_izq -->
<g id="node10" class="node">
<title>nodo_2_1_izq</title>
<ellipse fill="none" stroke="black" cx="429" cy="-98.87" rx="95.42" ry="26.74"/>
<text text-anchor="middle" x="429" y="-102.67" font-family="Times New Roman,serif" font-size="14.00">Seno</text>
<text text-anchor="middle" x="429" y="-87.67" font-family="Times New Roman,serif" font-size="14.00">0.8939966636005579</text>
</g>
<!-- nodo_2_0&#45;&gt;nodo_2_1_izq -->
<g id="edge8" class="edge">
<title>nodo_2_0&#45;&gt;nodo_2_1_izq</title>
<path fill="none" stroke="black" d="M453.69,-161.76C450.51,-153.8 446.95,-144.88 443.55,-136.34"/>
<polygon fill="black" stroke="black" points="446.88,-135.24 439.92,-127.24 440.37,-137.83 446.88,-135.24"/>
</g>
<!-- nodo_2_1_der -->
<g id="node12" class="node">
<title>nodo_2_1_der</title>
<ellipse fill="none" stroke="black" cx="569" cy="-98.87" rx="27" ry="18"/>
<text text-anchor="middle" x="569" y="-95.17" font-family="Times New Roman,serif" font-size="14.00">5.32</text>
</g>
<!-- nodo_2_0&#45;&gt;nodo_2_1_der -->
<g id="edge9" class="edge">
<title>nodo_2_0&#45;&gt;nodo_2_1_der</title>
<path fill="none" stroke="black" d="M493.53,-162.94C509.4,-149.67 528.76,-133.49 543.9,-120.84"/>
<polygon fill="black" stroke="black" points="546.12,-123.55 551.55,-114.45 541.64,-118.18 546.12,-123.55"/>
</g>
<!-- nodo_2_2_izq_ang -->
<g id="node11" class="node">
<title>nodo_2_2_izq_ang</title>
<ellipse fill="none" stroke="black" cx="429" cy="-18" rx="27" ry="18"/>
<text text-anchor="middle" x="429" y="-14.3" font-family="Times New Roman,serif" font-size="14.00">90</text>
</g>
<!-- nodo_2_1_izq&#45;&gt;nodo_2_2_izq_ang -->
<g id="edge7" class="edge">
<title>nodo_2_1_izq&#45;&gt;nodo_2_2_izq_ang</title>
<path fill="none" stroke="black" d="M429,-72.05C429,-64.29 429,-55.73 429,-47.79"/>
<polygon fill="black" stroke="black" points="432.5,-47.93 429,-37.93 425.5,-47.93 432.5,-47.93"/>
</g>
<!-- nodo_3_0 -->
<g id="node13" class="node">
<title>nodo_3_0</title>
<ellipse fill="none" stroke="black" cx="668" cy="-188.61" rx="33.88" ry="26.74"/>
<text text-anchor="middle" x="668" y="-192.41" font-family="Times New Roman,serif" font-size="14.00">Suma</text>
<text text-anchor="middle" x="668" y="-177.41" font-family="Times New Roman,serif" font-size="14.00">10.32</text>
</g>
<!-- nodo_3_1_izq -->
<g id="node14" class="node">
<title>nodo_3_1_izq</title>
<ellipse fill="none" stroke="black" cx="641" cy="-98.87" rx="27" ry="18"/>
<text text-anchor="middle" x="641" y="-95.17" font-family="Times New Roman,serif" font-size="14.00">5</text>
</g>
<!-- nodo_3_0&#45;&gt;nodo_3_1_izq -->
<g id="edge10" class="edge">
<title>nodo_3_0&#45;&gt;nodo_3_1_izq</title>
<path fill="none" stroke="black" d="M660.19,-162.23C656.86,-151.41 652.97,-138.76 649.56,-127.69"/>
<polygon fill="black" stroke="black" points="652.96,-126.84 646.68,-118.31 646.27,-128.9 652.96,-126.84"/>
</g>
<!-- nodo_3_1_der -->
<g id="node15" class="node">
<title>nodo_3_1_der</title>
<ellipse fill="none" stroke="black" cx="713" cy="-98.87" rx="27" ry="18"/>
<text text-anchor="middle" x="713" y="-95.17" font-family="Times New Roman,serif" font-size="14.00">5.32</text>
</g>
<!-- nodo_3_0&#45;&gt;nodo_3_1_der -->
<g id="edge11" class="edge">
<title>nodo_3_0&#45;&gt;nodo_3_1_der</title>
<path fill="none" stroke="black" d="M680.3,-163.63C686.19,-152.14 693.28,-138.32 699.34,-126.5"/>
<polygon fill="black" stroke="black" points="702.42,-128.16 703.87,-117.67 696.19,-124.97 702.42,-128.16"/>
</g>
<!-- nodo_4_0 -->
<g id="node16" class="node">
<title>nodo_4_0</title>
<ellipse fill="none" stroke="black" cx="830" cy="-188.61" rx="36.54" ry="26.74"/>
<text text-anchor="middle" x="830" y="-192.41" font-family="Times New Roman,serif" font-size="14.00">Resta</text>
<text text-anchor="middle" x="830" y="-177.41" font-family="Times New Roman,serif" font-size="14.00">&#45;995.5</text>
</g>
<!-- nodo_4_1_izq -->
<g id="node17" class="node">
<title>nodo_4_1_izq</title>
<ellipse fill="none" stroke="black" cx="785" cy="-98.87" rx="27" ry="18"/>
<text text-anchor="middle" x="785" y="-95.17" font-family="Times New Roman,serif" font-size="14.00">4.5</text>
</g>
<!-- nodo_4_0&#45;&gt;nodo_4_1_izq -->
<g id="edge12" class="edge">
<title>nodo_4_0&#45;&gt;nodo_4_1_izq</title>
<path fill="none" stroke="black" d="M817.46,-163.17C811.61,-151.76 804.63,-138.14 798.64,-126.47"/>
<polygon fill="black" stroke="black" points="801.86,-125.06 794.18,-117.76 795.63,-128.26 801.86,-125.06"/>
</g>
<!-- nodo_4_1_der -->
<g id="node18" class="node">
<title>nodo_4_1_der</title>
<ellipse fill="none" stroke="black" cx="876" cy="-98.87" rx="45.92" ry="26.74"/>
<text text-anchor="middle" x="876" y="-102.67" font-family="Times New Roman,serif" font-size="14.00">Potencia</text>
<text text-anchor="middle" x="876" y="-87.67" font-family="Times New Roman,serif" font-size="14.00">1000</text>
</g>
<!-- nodo_4_0&#45;&gt;nodo_4_1_der -->
<g id="edge15" class="edge">
<title>nodo_4_0&#45;&gt;nodo_4_1_der</title>
<path fill="none" stroke="black" d="M842.81,-163.17C847.42,-154.38 852.71,-144.29 857.7,-134.78"/>
<polygon fill="black" stroke="black" points="860.69,-136.61 862.23,-126.13 854.49,-133.36 860.69,-136.61"/>
</g>
<!-- nodo_4_2_der_izq -->
<g id="node19" class="node">
<title>nodo_4_2_der_izq</title>
<ellipse fill="none" stroke="black" cx="840" cy="-18" rx="27" ry="18"/>
<text text-anchor="middle" x="840" y="-14.3" font-family="Times New Roman,serif" font-size="14.00">10</text>
</g>
<!-- nodo_4_1_der&#45;&gt;nodo_4_2_der_izq -->
<g id="edge13" class="edge">
<title>nodo_4_1_der&#45;&gt;nodo_4_2_der_izq</title>
<path fill="none" stroke="black" d="M864.61,-72.92C860.67,-64.28 856.24,-54.58 852.24,-45.8"/>
<polygon fill="black" stroke="black" points="855.42,-44.36 848.09,-36.72 849.06,-47.27 855.42,-44.36"/>
</g>
<!-- nodo_4_2_der_der -->
<g id="node20" class="node">
<title>nodo_4_2_der_der</title>
<ellipse fill="none" stroke="black" cx="912" cy="-18" rx="27" ry="18"/>
<text text-anchor="middle" x="912" y="-14.3" font-family="Times New Roman,serif" font-size="14.00">3</text>
</g>
<!-- nodo_4_1_der&#45;&gt;nodo_4_2_der_der -->
<g id="edge14" class="edge">
<title>nodo_4_1_der&#45;&gt;nodo_4_2_der_der</title>
<path fill="none" stroke="black" d="M887.39,-72.92C891.33,-64.28 895.76,-54.58 899.76,-45.8"/>
<polygon fill="black" stroke="black" points="902.94,-47.27 903.91,-36.72 896.58,-44.36 902.94,-47.27"/>
</g>
<!-- nodo_5_0 -->
<g id="node21" class="node">
<title>nodo_5_0</title>
<ellipse fill="none" stroke="black" cx="1105" cy="-188.61" rx="90.52" ry="26.74"/>
<text text-anchor="middle" x="1105" y="-192.41" font-family="Times New Roman,serif" font-size="14.00">Suma</text>
<text text-anchor="middle" x="1105" y="-177.41" font-family="Times New Roman,serif" font-size="14.00">6.213996663600558</text>
</g>
<!-- nodo_5_1_izq -->
<g id="node22" class="node">
<title>nodo_5_1_izq</title>
<ellipse fill="none" stroke="black" cx="1035" cy="-98.87" rx="95.42" ry="26.74"/>
<text text-anchor="middle" x="1035" y="-102.67" font-family="Times New Roman,serif" font-size="14.00">Seno</text>
<text text-anchor="middle" x="1035" y="-87.67" font-family="Times New Roman,serif" font-size="14.00">0.8939966636005579</text>
</g>
<!-- nodo_5_0&#45;&gt;nodo_5_1_izq -->
<g id="edge17" class="edge">
<title>nodo_5_0&#45;&gt;nodo_5_1_izq</title>
<path fill="none" stroke="black" d="M1084.75,-162.23C1077.72,-153.41 1069.7,-143.37 1062.2,-133.96"/>
<polygon fill="black" stroke="black" points="1065.12,-132.01 1056.15,-126.37 1059.65,-136.37 1065.12,-132.01"/>
</g>
<!-- nodo_5_1_der -->
<g id="node24" class="node">
<title>nodo_5_1_der</title>
<ellipse fill="none" stroke="black" cx="1175" cy="-98.87" rx="27" ry="18"/>
<text text-anchor="middle" x="1175" y="-95.17" font-family="Times New Roman,serif" font-size="14.00">5.32</text>
</g>
<!-- nodo_5_0&#45;&gt;nodo_5_1_der -->
<g id="edge18" class="edge">
<title>nodo_5_0&#45;&gt;nodo_5_1_der</title>
<path fill="none" stroke="black" d="M1125.25,-162.23C1134.81,-150.25 1146.16,-136.02 1155.61,-124.18"/>
<polygon fill="black" stroke="black" points="1158.26,-126.46 1161.76,-116.47 1152.79,-122.1 1158.26,-126.46"/>
</g>
<!-- nodo_5_2_izq_ang -->
<g id="node23" class="node">
<title>nodo_5_2_izq_ang</title>
<ellipse fill="none" stroke="black" cx="1035" cy="-18" rx="27" ry="18"/>
<text text-anchor="middle" x="1035" y="-14.3" font-family="Times New Roman,serif" font-size="14.00">90</text>
</g>
<!-- nodo_5_1_izq&#45;&gt;nodo_5_2_izq_ang -->
<g id="edge16" class="edge">
<title>nodo_5_1_izq&#45;&gt;nodo_5_2_izq_ang</title>
<path fill="none" stroke="black" d="M1035,-72.05C1035,-64.29 1035,-55.73 1035,-47.79"/>
<polygon fill="black" stroke="black" points="1038.5,-47.93 1035,-37.93 1031.5,-47.93 1038.5,-47.93"/>
</g>
</g>
</svg>
